<svg width="1400" height="1400" viewBox="0 0 1400 1400" fill="none" xmlns="http://www.w3.org/2000/svg">
<mask id="mask0_2_351" style="mask-type:luminance" maskUnits="userSpaceOnUse" x="0" y="0" width="1400" height="1400">
<path d="M0.5 0.5H1399.5V1399.5H0.5V0.5Z" fill="white" stroke="white"/>
</mask>
<g mask="url(#mask0_2_351)">
<mask id="mask1_2_351" style="mask-type:luminance" maskUnits="userSpaceOnUse" x="0" y="0" width="1400" height="1400">
<path d="M0.5 1399.5V0.5H1399.5V1399.5H0.5Z" fill="white" stroke="#97D4E9"/>
</mask>
<g mask="url(#mask1_2_351)">
<path d="M777.778 207.406H751.852M751.852 207.406V259.258H700V181.48H725.926C740.244 181.48 751.852 193.088 751.852 207.406ZM751.852 207.406V285.184H648.148V259.258H622.222" stroke="#97D4E9" stroke-width="0.259259" stroke-miterlimit="10"/>
<path d="M674.074 311.11V207.406H725.926V155.554" stroke="#97D4E9" stroke-width="0.259259" stroke-miterlimit="10"/>
<path d="M622.222 207.406H648.148V181.48H674.074V155.554" stroke="#97D4E9" stroke-width="0.259259" stroke-miterlimit="10"/>
<path d="M725.926 259.259V311.11" stroke="#97D4E9" stroke-width="0.259259" stroke-miterlimit="10"/>
<path d="M777.778 259.259H751.852" stroke="#97D4E9" stroke-width="0.259259" stroke-miterlimit="10"/>
<path d="M1192.59 311.11V285.184M1192.59 285.184H1140.74V233.332H1218.52V259.258C1218.52 273.577 1206.91 285.184 1192.59 285.184ZM1192.59 285.184H1114.81V181.48H1140.74V155.554" stroke="#97D4E9" stroke-width="0.259259" stroke-miterlimit="10"/>
<path d="M1088.89 207.406H1192.59V259.258H1244.44" stroke="#97D4E9" stroke-width="0.259259" stroke-miterlimit="10"/>
<path d="M1192.59 155.554V181.48H1218.52V207.406H1244.44" stroke="#97D4E9" stroke-width="0.259259" stroke-miterlimit="10"/>
<path d="M1140.74 259.259H1088.89" stroke="#97D4E9" stroke-width="0.259259" stroke-miterlimit="10"/>
<path d="M1140.74 311.111V285.185" stroke="#97D4E9" stroke-width="0.259259" stroke-miterlimit="10"/>
<path d="M259.259 311.11V285.184M259.259 285.184H207.407V233.332H285.185V259.258C285.185 273.577 273.578 285.184 259.259 285.184ZM259.259 285.184H181.481V181.48H207.407V155.554" stroke="#97D4E9" stroke-width="0.259259" stroke-miterlimit="10"/>
<path d="M155.556 207.406H259.259V259.258H311.111" stroke="#97D4E9" stroke-width="0.259259" stroke-miterlimit="10"/>
<path d="M259.259 155.554V181.48H285.185V207.406H311.111" stroke="#97D4E9" stroke-width="0.259259" stroke-miterlimit="10"/>
<path d="M207.407 259.259H155.555" stroke="#97D4E9" stroke-width="0.259259" stroke-miterlimit="10"/>
<path d="M207.407 311.111V285.185" stroke="#97D4E9" stroke-width="0.259259" stroke-miterlimit="10"/>
<path d="M311.111 103.704H388.889C403.207 103.704 414.815 92.0964 414.815 77.7778V0" stroke="#97D4E9" stroke-width="0.259259" stroke-miterlimit="10"/>
<path d="M362.963 0V51.8519H440.741V129.63H362.963V155.556" stroke="#97D4E9" stroke-width="0.259259" stroke-miterlimit="10"/>
<path d="M414.815 155.554L466.667 103.703" stroke="#97D4E9" stroke-width="0.259259" stroke-miterlimit="10"/>
<path d="M311.111 51.8517L337.037 77.7776H388.889V25.9258" stroke="#97D4E9" stroke-width="0.259259" stroke-miterlimit="10"/>
<path d="M466.667 51.8517H440.741L414.815 25.9258H337.037V129.629H362.963" stroke="#97D4E9" stroke-width="0.259259" stroke-miterlimit="10"/>
<path d="M829.63 0V77.7778C829.63 92.0964 841.237 103.704 855.556 103.704H933.333" stroke="#97D4E9" stroke-width="0.259259" stroke-miterlimit="10"/>
<path d="M933.333 51.8521H881.482V129.63H803.704V51.8521H777.778" stroke="#97D4E9" stroke-width="0.259259" stroke-miterlimit="10"/>
<path d="M777.778 103.704L829.63 155.556" stroke="#97D4E9" stroke-width="0.259259" stroke-miterlimit="10"/>
<path d="M881.482 0L855.556 25.9259V77.7778H907.408" stroke="#97D4E9" stroke-width="0.259259" stroke-miterlimit="10"/>
<path d="M881.481 155.555V129.629L907.407 103.704V25.9258H803.704V51.8517" stroke="#97D4E9" stroke-width="0.259259" stroke-miterlimit="10"/>
<path d="M1400 51.8521H1322.22C1307.9 51.8521 1296.3 63.4593 1296.3 77.778V155.556" stroke="#97D4E9" stroke-width="0.259259" stroke-miterlimit="10"/>
<path d="M1348.15 155.556V103.704H1270.37V25.9259H1348.15V0" stroke="#97D4E9" stroke-width="0.259259" stroke-miterlimit="10"/>
<path d="M1296.3 -0.000244141L1244.44 51.8515" stroke="#97D4E9" stroke-width="0.259259" stroke-miterlimit="10"/>
<path d="M1400 103.704L1374.07 77.7781H1322.22V129.63" stroke="#97D4E9" stroke-width="0.259259" stroke-miterlimit="10"/>
<path d="M1244.44 103.704H1270.37L1296.3 129.629H1374.07V25.9258H1348.15" stroke="#97D4E9" stroke-width="0.259259" stroke-miterlimit="10"/>
<path d="M570.37 0V51.8519H492.593V103.704H466.667" stroke="#97D4E9" stroke-width="0.259259" stroke-miterlimit="10"/>
<path d="M518.519 0V77.7778H544.444V129.63" stroke="#97D4E9" stroke-width="0.259259" stroke-miterlimit="10"/>
<path d="M622.222 51.8521H570.37V155.556" stroke="#97D4E9" stroke-width="0.259259" stroke-miterlimit="10"/>
<path d="M492.593 103.704C492.593 118.022 504.2 129.629 518.518 129.629H596.296V103.704M596.296 103.704H622.222M596.296 103.704V25.9258H544.444V51.8517" stroke="#97D4E9" stroke-width="0.259259" stroke-miterlimit="10"/>
<path d="M518.519 129.63V155.556" stroke="#97D4E9" stroke-width="0.259259" stroke-miterlimit="10"/>
<path d="M492.593 51.8521H466.667" stroke="#97D4E9" stroke-width="0.259259" stroke-miterlimit="10"/>
<path d="M1088.89 103.704H1037.04V25.9259H985.185V0" stroke="#97D4E9" stroke-width="0.259259" stroke-miterlimit="10"/>
<path d="M1088.89 51.8521H1011.11V77.778H959.259" stroke="#97D4E9" stroke-width="0.259259" stroke-miterlimit="10"/>
<path d="M1037.04 155.556V103.704H933.333" stroke="#97D4E9" stroke-width="0.259259" stroke-miterlimit="10"/>
<path d="M985.185 25.9258C970.867 25.9258 959.259 37.5331 959.259 51.8517V129.629H985.185M985.185 129.629V155.555M985.185 129.629H1062.96V77.7776H1037.04" stroke="#97D4E9" stroke-width="0.259259" stroke-miterlimit="10"/>
<path d="M959.259 51.8521H933.333" stroke="#97D4E9" stroke-width="0.259259" stroke-miterlimit="10"/>
<path d="M1037.04 25.9258V-0.00012207" stroke="#97D4E9" stroke-width="0.259259" stroke-miterlimit="10"/>
<path d="M155.556 103.704H103.704V25.9259H51.8521V0" stroke="#97D4E9" stroke-width="0.259259" stroke-miterlimit="10"/>
<path d="M155.555 51.8521H77.7776V77.778H25.9258" stroke="#97D4E9" stroke-width="0.259259" stroke-miterlimit="10"/>
<path d="M103.704 155.556V103.704H0" stroke="#97D4E9" stroke-width="0.259259" stroke-miterlimit="10"/>
<path d="M51.8517 25.9258C37.5331 25.9258 25.9258 37.5331 25.9258 51.8517V129.629H51.8517M51.8517 129.629V155.555M51.8517 129.629H129.629V77.7776H103.704" stroke="#97D4E9" stroke-width="0.259259" stroke-miterlimit="10"/>
<path d="M25.9258 51.8521H-0.00012207" stroke="#97D4E9" stroke-width="0.259259" stroke-miterlimit="10"/>
<path d="M103.704 25.9258V-0.00012207" stroke="#97D4E9" stroke-width="0.259259" stroke-miterlimit="10"/>
<path d="M674.074 155.556L622.222 103.704L725.926 0L777.778 51.8519" stroke="#97D4E9" stroke-width="0.259259" stroke-miterlimit="10"/>
<path d="M674.074 -6.10352e-05L777.778 103.704H736.665C729.789 103.704 723.194 100.972 718.333 96.1101L674.074 51.8518" stroke="#97D4E9" stroke-width="0.259259" stroke-miterlimit="10"/>
<path d="M725.926 155.554L622.222 51.8506" stroke="#97D4E9" stroke-width="0.259259" stroke-miterlimit="10"/>
<path d="M1088.89 51.8519L1140.74 0L1244.44 103.704L1192.59 155.556" stroke="#97D4E9" stroke-width="0.259259" stroke-miterlimit="10"/>
<path d="M1244.44 51.8516L1140.74 155.555V114.442C1140.74 107.567 1143.47 100.972 1148.33 96.1099L1192.59 51.8518" stroke="#97D4E9" stroke-width="0.259259" stroke-miterlimit="10"/>
<path d="M1088.89 103.704L1192.59 0.000244141" stroke="#97D4E9" stroke-width="0.259259" stroke-miterlimit="10"/>
<path d="M155.556 51.8519L207.408 0L311.111 103.704L259.259 155.556" stroke="#97D4E9" stroke-width="0.259259" stroke-miterlimit="10"/>
<path d="M311.111 51.8518L207.407 155.556V114.443C207.407 107.567 210.139 100.972 215.001 96.1101L259.259 51.852" stroke="#97D4E9" stroke-width="0.259259" stroke-miterlimit="10"/>
<path d="M155.556 103.704L259.26 0.000244141" stroke="#97D4E9" stroke-width="0.259259" stroke-miterlimit="10"/>
<path d="M440.741 233.332V181.48H414.815V155.554" stroke="#97D4E9" stroke-width="0.259259" stroke-miterlimit="10"/>
<path d="M362.963 311.11V285.184H440.741V233.332H362.963V155.554" stroke="#97D4E9" stroke-width="0.259259" stroke-miterlimit="10"/>
<path d="M311.111 259.259H414.815V311.11" stroke="#97D4E9" stroke-width="0.259259" stroke-miterlimit="10"/>
<path d="M311.111 207.406H337.037V181.48H362.963C377.282 181.48 388.889 193.088 388.889 207.406V285.184" stroke="#97D4E9" stroke-width="0.259259" stroke-miterlimit="10"/>
<path d="M466.667 207.406H388.889" stroke="#97D4E9" stroke-width="0.259259" stroke-miterlimit="10"/>
<path d="M466.667 259.259H440.741" stroke="#97D4E9" stroke-width="0.259259" stroke-miterlimit="10"/>
<path d="M855.555 285.184H907.407V259.259H933.333" stroke="#97D4E9" stroke-width="0.259259" stroke-miterlimit="10"/>
<path d="M777.778 207.406H803.704V285.184H855.556V207.406H933.333" stroke="#97D4E9" stroke-width="0.259259" stroke-miterlimit="10"/>
<path d="M829.63 155.554V259.258H777.778" stroke="#97D4E9" stroke-width="0.259259" stroke-miterlimit="10"/>
<path d="M881.481 155.554V181.48H907.407V207.406C907.407 221.725 895.8 233.332 881.481 233.332H803.704" stroke="#97D4E9" stroke-width="0.259259" stroke-miterlimit="10"/>
<path d="M881.481 311.111V233.333" stroke="#97D4E9" stroke-width="0.259259" stroke-miterlimit="10"/>
<path d="M829.63 311.111V285.185" stroke="#97D4E9" stroke-width="0.259259" stroke-miterlimit="10"/>
<path d="M1270.37 233.333V285.184H1296.3V311.11" stroke="#97D4E9" stroke-width="0.259259" stroke-miterlimit="10"/>
<path d="M1348.15 155.554V181.48H1270.37V233.332H1348.15V311.11" stroke="#97D4E9" stroke-width="0.259259" stroke-miterlimit="10"/>
<path d="M1400 207.406H1296.3V155.554" stroke="#97D4E9" stroke-width="0.259259" stroke-miterlimit="10"/>
<path d="M1400 259.258H1374.07V285.184H1348.15C1333.83 285.184 1322.22 273.577 1322.22 259.258V181.48" stroke="#97D4E9" stroke-width="0.259259" stroke-miterlimit="10"/>
<path d="M1244.44 259.259H1322.22" stroke="#97D4E9" stroke-width="0.259259" stroke-miterlimit="10"/>
<path d="M1244.44 207.406H1270.37" stroke="#97D4E9" stroke-width="0.259259" stroke-miterlimit="10"/>
<path d="M518.518 311.11L466.667 259.258L570.37 155.554V259.258" stroke="#97D4E9" stroke-width="0.259259" stroke-miterlimit="10"/>
<path d="M518.518 155.554L466.667 207.406L570.37 311.11L596.296 285.184V259.258H544.444V233.332H570.37C570.37 219.014 581.978 207.406 596.296 207.406H622.222" stroke="#97D4E9" stroke-width="0.259259" stroke-miterlimit="10"/>
<path d="M622.222 259.259H596.296" stroke="#97D4E9" stroke-width="0.259259" stroke-miterlimit="10"/>
<path d="M933.333 207.406L985.185 155.554L1088.89 259.258H985.185" stroke="#97D4E9" stroke-width="0.259259" stroke-miterlimit="10"/>
<path d="M1088.89 207.406L1037.04 155.554L933.333 259.258L959.259 285.184H985.185V233.332H1011.11V259.258C1025.43 259.258 1037.04 270.865 1037.04 285.184V311.11" stroke="#97D4E9" stroke-width="0.259259" stroke-miterlimit="10"/>
<path d="M985.185 311.111V285.185" stroke="#97D4E9" stroke-width="0.259259" stroke-miterlimit="10"/>
<path d="M0 207.406L51.8519 155.554L155.556 259.258H51.8519" stroke="#97D4E9" stroke-width="0.259259" stroke-miterlimit="10"/>
<path d="M155.556 207.406L103.704 155.554L0 259.258L25.9259 285.184H51.8519V233.332H77.7778V259.258C92.0964 259.258 103.704 270.865 103.704 285.184V311.11" stroke="#97D4E9" stroke-width="0.259259" stroke-miterlimit="10"/>
<path d="M51.8521 311.111V285.185" stroke="#97D4E9" stroke-width="0.259259" stroke-miterlimit="10"/>
<path d="M466.667 414.815L414.815 466.667V311.111" stroke="#97D4E9" stroke-width="0.259259" stroke-miterlimit="10"/>
<path d="M466.667 362.963H388.889V388.889H362.963V414.815H311.111" stroke="#97D4E9" stroke-width="0.259259" stroke-miterlimit="10"/>
<path d="M362.963 466.667C362.963 452.348 374.57 440.741 388.889 440.741H440.741V337.037H362.963V311.111L311.111 362.963" stroke="#97D4E9" stroke-width="0.259259" stroke-miterlimit="10"/>
<path d="M829.63 466.667L777.778 414.815H933.333" stroke="#97D4E9" stroke-width="0.259259" stroke-miterlimit="10"/>
<path d="M881.481 466.667V388.889H855.556V362.963H829.63V311.111" stroke="#97D4E9" stroke-width="0.259259" stroke-miterlimit="10"/>
<path d="M777.778 362.963C792.096 362.963 803.704 374.57 803.704 388.889V440.741H907.407V362.963H933.333L881.482 311.111" stroke="#97D4E9" stroke-width="0.259259" stroke-miterlimit="10"/>
<path d="M1244.44 362.963L1296.3 311.111V466.667" stroke="#97D4E9" stroke-width="0.259259" stroke-miterlimit="10"/>
<path d="M1244.44 414.815H1322.22V388.889H1348.15V362.963H1400" stroke="#97D4E9" stroke-width="0.259259" stroke-miterlimit="10"/>
<path d="M1348.15 311.111C1348.15 325.43 1336.54 337.037 1322.22 337.037H1270.37V440.741H1348.15V466.667L1400 414.815" stroke="#97D4E9" stroke-width="0.259259" stroke-miterlimit="10"/>
<path d="M518.518 466.667V414.815H466.667" stroke="#97D4E9" stroke-width="0.259259" stroke-miterlimit="10"/>
<path d="M622.222 414.815H544.444V440.741H492.593V337.037H596.296V362.963H622.222" stroke="#97D4E9" stroke-width="0.259259" stroke-miterlimit="10"/>
<path d="M570.37 466.667V440.741H596.296V388.889H544.444C530.126 388.889 518.519 377.282 518.519 362.963V311.111" stroke="#97D4E9" stroke-width="0.259259" stroke-miterlimit="10"/>
<path d="M466.667 362.963H570.37V311.111" stroke="#97D4E9" stroke-width="0.259259" stroke-miterlimit="10"/>
<path d="M933.333 362.963H985.185V311.111" stroke="#97D4E9" stroke-width="0.259259" stroke-miterlimit="10"/>
<path d="M985.185 466.666V388.889H959.259V337.037H1062.96V440.741H1037.04V466.666" stroke="#97D4E9" stroke-width="0.259259" stroke-miterlimit="10"/>
<path d="M933.333 414.815H959.259V440.741H1011.11V388.889C1011.11 374.57 1022.72 362.963 1037.04 362.963H1088.89" stroke="#97D4E9" stroke-width="0.259259" stroke-miterlimit="10"/>
<path d="M1037.04 311.111V414.815H1088.89" stroke="#97D4E9" stroke-width="0.259259" stroke-miterlimit="10"/>
<path d="M0 362.963H51.8519V311.111" stroke="#97D4E9" stroke-width="0.259259" stroke-miterlimit="10"/>
<path d="M51.8517 466.666V388.889H25.9258V337.037H129.629V440.741H103.704V466.666" stroke="#97D4E9" stroke-width="0.259259" stroke-miterlimit="10"/>
<path d="M0 414.815H25.9259V440.741H77.7778V388.889C77.7778 374.57 89.3853 362.963 103.704 362.963H155.556" stroke="#97D4E9" stroke-width="0.259259" stroke-miterlimit="10"/>
<path d="M103.704 311.111V414.815H155.555" stroke="#97D4E9" stroke-width="0.259259" stroke-miterlimit="10"/>
<path d="M777.778 414.815L725.926 466.667V311.111L622.222 414.815" stroke="#97D4E9" stroke-width="0.259259" stroke-miterlimit="10"/>
<path d="M622.222 362.963H648.148C662.467 362.963 674.074 351.356 674.074 337.037V311.111" stroke="#97D4E9" stroke-width="0.259259" stroke-miterlimit="10"/>
<path d="M777.778 362.963H725.926L674.074 414.815H648.148V440.741H674.074V466.667" stroke="#97D4E9" stroke-width="0.259259" stroke-miterlimit="10"/>
<path d="M1140.74 466.667L1088.89 414.815H1244.44L1140.74 311.111" stroke="#97D4E9" stroke-width="0.259259" stroke-miterlimit="10"/>
<path d="M1192.59 311.111V337.037C1192.59 351.356 1204.2 362.963 1218.52 362.963H1244.44" stroke="#97D4E9" stroke-width="0.259259" stroke-miterlimit="10"/>
<path d="M1192.59 466.666V414.815L1140.74 362.963V337.037H1114.81V362.963H1088.89" stroke="#97D4E9" stroke-width="0.259259" stroke-miterlimit="10"/>
<path d="M207.408 466.667L155.556 414.815H311.111L207.408 311.111" stroke="#97D4E9" stroke-width="0.259259" stroke-miterlimit="10"/>
<path d="M259.259 311.111V337.037C259.259 351.356 270.867 362.963 285.185 362.963H311.111" stroke="#97D4E9" stroke-width="0.259259" stroke-miterlimit="10"/>
<path d="M259.259 466.666V414.815L207.408 362.963V337.037H181.482V362.963H155.556" stroke="#97D4E9" stroke-width="0.259259" stroke-miterlimit="10"/>
<path d="M777.778 1140.74H751.852M751.852 1140.74V1192.59H700V1114.81H725.926C740.244 1114.81 751.852 1126.42 751.852 1140.74ZM751.852 1140.74V1218.52H648.148V1192.59H622.222" stroke="#97D4E9" stroke-width="0.259259" stroke-miterlimit="10"/>
<path d="M674.074 1244.44V1140.74H725.926V1088.89" stroke="#97D4E9" stroke-width="0.259259" stroke-miterlimit="10"/>
<path d="M622.222 1140.74H648.148V1114.81H674.074V1088.89" stroke="#97D4E9" stroke-width="0.259259" stroke-miterlimit="10"/>
<path d="M725.926 1192.59V1244.44" stroke="#97D4E9" stroke-width="0.259259" stroke-miterlimit="10"/>
<path d="M777.778 1192.59H751.852" stroke="#97D4E9" stroke-width="0.259259" stroke-miterlimit="10"/>
<path d="M1192.59 1244.44V1218.52M1192.59 1218.52H1140.74V1166.67H1218.52V1192.59C1218.52 1206.91 1206.91 1218.52 1192.59 1218.52ZM1192.59 1218.52H1114.81V1114.81H1140.74V1088.89" stroke="#97D4E9" stroke-width="0.259259" stroke-miterlimit="10"/>
<path d="M1088.89 1140.74H1192.59V1192.59H1244.44" stroke="#97D4E9" stroke-width="0.259259" stroke-miterlimit="10"/>
<path d="M1192.59 1088.89V1114.81H1218.52V1140.74H1244.44" stroke="#97D4E9" stroke-width="0.259259" stroke-miterlimit="10"/>
<path d="M1140.74 1192.59H1088.89" stroke="#97D4E9" stroke-width="0.259259" stroke-miterlimit="10"/>
<path d="M1140.74 1244.44V1218.52" stroke="#97D4E9" stroke-width="0.259259" stroke-miterlimit="10"/>
<path d="M259.259 1244.44V1218.52M259.259 1218.52H207.407V1166.67H285.185V1192.59C285.185 1206.91 273.578 1218.52 259.259 1218.52ZM259.259 1218.52H181.481V1114.81H207.407V1088.89" stroke="#97D4E9" stroke-width="0.259259" stroke-miterlimit="10"/>
<path d="M155.556 1140.74H259.259V1192.59H311.111" stroke="#97D4E9" stroke-width="0.259259" stroke-miterlimit="10"/>
<path d="M259.259 1088.89V1114.81H285.185V1140.74H311.111" stroke="#97D4E9" stroke-width="0.259259" stroke-miterlimit="10"/>
<path d="M207.407 1192.59H155.555" stroke="#97D4E9" stroke-width="0.259259" stroke-miterlimit="10"/>
<path d="M207.407 1244.44V1218.52" stroke="#97D4E9" stroke-width="0.259259" stroke-miterlimit="10"/>
<path d="M311.111 1037.04H388.889C403.207 1037.04 414.815 1025.43 414.815 1011.11V933.332" stroke="#97D4E9" stroke-width="0.259259" stroke-miterlimit="10"/>
<path d="M362.963 933.332V985.184H440.741V1062.96H362.963V1088.89" stroke="#97D4E9" stroke-width="0.259259" stroke-miterlimit="10"/>
<path d="M414.815 1088.89L466.667 1037.04" stroke="#97D4E9" stroke-width="0.259259" stroke-miterlimit="10"/>
<path d="M311.111 985.184L337.037 1011.11H388.889V959.258" stroke="#97D4E9" stroke-width="0.259259" stroke-miterlimit="10"/>
<path d="M466.667 985.184H440.741L414.815 959.258H337.037V1062.96H362.963" stroke="#97D4E9" stroke-width="0.259259" stroke-miterlimit="10"/>
<path d="M829.63 933.332V1011.11C829.63 1025.43 841.237 1037.04 855.556 1037.04H933.333" stroke="#97D4E9" stroke-width="0.259259" stroke-miterlimit="10"/>
<path d="M933.333 985.185H881.482V1062.96H803.704V985.185H777.778" stroke="#97D4E9" stroke-width="0.259259" stroke-miterlimit="10"/>
<path d="M777.778 1037.04L829.63 1088.89" stroke="#97D4E9" stroke-width="0.259259" stroke-miterlimit="10"/>
<path d="M881.481 933.332L855.555 959.258V1011.11H907.407" stroke="#97D4E9" stroke-width="0.259259" stroke-miterlimit="10"/>
<path d="M881.481 1088.89V1062.96L907.407 1037.04V959.258H803.704V985.184" stroke="#97D4E9" stroke-width="0.259259" stroke-miterlimit="10"/>
<path d="M1400 985.185H1322.22C1307.9 985.185 1296.3 996.792 1296.3 1011.11V1088.89" stroke="#97D4E9" stroke-width="0.259259" stroke-miterlimit="10"/>
<path d="M1348.15 1088.89V1037.04H1270.37V959.258H1348.15V933.332" stroke="#97D4E9" stroke-width="0.259259" stroke-miterlimit="10"/>
<path d="M1296.3 933.333L1244.44 985.185" stroke="#97D4E9" stroke-width="0.259259" stroke-miterlimit="10"/>
<path d="M1400 1037.04L1374.07 1011.11H1322.22V1062.96" stroke="#97D4E9" stroke-width="0.259259" stroke-miterlimit="10"/>
<path d="M1244.44 1037.04H1270.37L1296.3 1062.96H1374.07V959.258H1348.15" stroke="#97D4E9" stroke-width="0.259259" stroke-miterlimit="10"/>
<path d="M570.37 933.332V985.184H492.592V1037.04H466.667" stroke="#97D4E9" stroke-width="0.259259" stroke-miterlimit="10"/>
<path d="M518.519 933.332V1011.11H544.444V1062.96" stroke="#97D4E9" stroke-width="0.259259" stroke-miterlimit="10"/>
<path d="M622.222 985.185H570.37V1088.89" stroke="#97D4E9" stroke-width="0.259259" stroke-miterlimit="10"/>
<path d="M492.593 1037.04C492.593 1051.35 504.2 1062.96 518.519 1062.96H596.296V1037.04M596.296 1037.04H622.222M596.296 1037.04V959.258H544.445V985.184" stroke="#97D4E9" stroke-width="0.259259" stroke-miterlimit="10"/>
<path d="M518.519 1062.96V1088.89" stroke="#97D4E9" stroke-width="0.259259" stroke-miterlimit="10"/>
<path d="M492.593 985.185H466.667" stroke="#97D4E9" stroke-width="0.259259" stroke-miterlimit="10"/>
<path d="M1088.89 1037.04H1037.04V959.258H985.185V933.332" stroke="#97D4E9" stroke-width="0.259259" stroke-miterlimit="10"/>
<path d="M1088.89 985.185H1011.11V1011.11H959.259" stroke="#97D4E9" stroke-width="0.259259" stroke-miterlimit="10"/>
<path d="M1037.04 1088.89V1037.04H933.333" stroke="#97D4E9" stroke-width="0.259259" stroke-miterlimit="10"/>
<path d="M985.185 959.258C970.867 959.258 959.259 970.866 959.259 985.184V1062.96H985.185M985.185 1062.96V1088.89M985.185 1062.96H1062.96V1011.11H1037.04" stroke="#97D4E9" stroke-width="0.259259" stroke-miterlimit="10"/>
<path d="M959.259 985.185H933.333" stroke="#97D4E9" stroke-width="0.259259" stroke-miterlimit="10"/>
<path d="M1037.04 959.258V933.332" stroke="#97D4E9" stroke-width="0.259259" stroke-miterlimit="10"/>
<path d="M155.556 1037.04H103.704V959.258H51.8521V933.332" stroke="#97D4E9" stroke-width="0.259259" stroke-miterlimit="10"/>
<path d="M155.555 985.185H77.7776V1011.11H25.9258" stroke="#97D4E9" stroke-width="0.259259" stroke-miterlimit="10"/>
<path d="M103.704 1088.89V1037.04H-0.00012207" stroke="#97D4E9" stroke-width="0.259259" stroke-miterlimit="10"/>
<path d="M51.8517 959.258C37.5331 959.258 25.9258 970.866 25.9258 985.184V1062.96H51.8517M51.8517 1062.96V1088.89M51.8517 1062.96H129.629V1011.11H103.704" stroke="#97D4E9" stroke-width="0.259259" stroke-miterlimit="10"/>
<path d="M25.9258 985.185H-0.00012207" stroke="#97D4E9" stroke-width="0.259259" stroke-miterlimit="10"/>
<path d="M103.704 959.258V933.332" stroke="#97D4E9" stroke-width="0.259259" stroke-miterlimit="10"/>
<path d="M674.074 1088.89L622.222 1037.04L725.926 933.332L777.778 985.184" stroke="#97D4E9" stroke-width="0.259259" stroke-miterlimit="10"/>
<path d="M674.074 933.334L777.778 1037.04H736.665C729.789 1037.04 723.194 1034.31 718.333 1029.44L674.074 985.186" stroke="#97D4E9" stroke-width="0.259259" stroke-miterlimit="10"/>
<path d="M725.926 1088.89L622.222 985.184" stroke="#97D4E9" stroke-width="0.259259" stroke-miterlimit="10"/>
<path d="M1088.89 985.184L1140.74 933.332L1244.44 1037.04L1192.59 1088.89" stroke="#97D4E9" stroke-width="0.259259" stroke-miterlimit="10"/>
<path d="M1244.44 985.184L1140.74 1088.89V1047.77C1140.74 1040.9 1143.47 1034.3 1148.33 1029.44L1192.59 985.184" stroke="#97D4E9" stroke-width="0.259259" stroke-miterlimit="10"/>
<path d="M1088.89 1037.04L1192.59 933.331" stroke="#97D4E9" stroke-width="0.259259" stroke-miterlimit="10"/>
<path d="M155.556 985.184L207.408 933.332L311.111 1037.04L259.259 1088.89" stroke="#97D4E9" stroke-width="0.259259" stroke-miterlimit="10"/>
<path d="M311.111 985.184L207.407 1088.89L207.408 1047.77C207.408 1040.9 210.139 1034.3 215.001 1029.44L259.259 985.184" stroke="#97D4E9" stroke-width="0.259259" stroke-miterlimit="10"/>
<path d="M155.556 1037.04L259.26 933.331" stroke="#97D4E9" stroke-width="0.259259" stroke-miterlimit="10"/>
<path d="M440.741 1166.67V1114.81H414.815V1088.89" stroke="#97D4E9" stroke-width="0.259259" stroke-miterlimit="10"/>
<path d="M362.963 1244.44V1218.52H440.741V1166.67H362.963V1088.89" stroke="#97D4E9" stroke-width="0.259259" stroke-miterlimit="10"/>
<path d="M311.111 1192.59H414.815V1244.44" stroke="#97D4E9" stroke-width="0.259259" stroke-miterlimit="10"/>
<path d="M311.111 1140.74H337.037V1114.81H362.963C377.282 1114.81 388.889 1126.42 388.889 1140.74V1218.52" stroke="#97D4E9" stroke-width="0.259259" stroke-miterlimit="10"/>
<path d="M466.667 1140.74H388.889" stroke="#97D4E9" stroke-width="0.259259" stroke-miterlimit="10"/>
<path d="M466.667 1192.59H440.741" stroke="#97D4E9" stroke-width="0.259259" stroke-miterlimit="10"/>
<path d="M855.555 1218.52H907.407V1192.59H933.333" stroke="#97D4E9" stroke-width="0.259259" stroke-miterlimit="10"/>
<path d="M777.778 1140.74H803.704V1218.52H855.556V1140.74H933.333" stroke="#97D4E9" stroke-width="0.259259" stroke-miterlimit="10"/>
<path d="M829.63 1088.89V1192.59H777.778" stroke="#97D4E9" stroke-width="0.259259" stroke-miterlimit="10"/>
<path d="M881.481 1088.89V1114.81H907.407V1140.74C907.407 1155.06 895.8 1166.67 881.481 1166.67H803.704" stroke="#97D4E9" stroke-width="0.259259" stroke-miterlimit="10"/>
<path d="M881.481 1244.44V1166.67" stroke="#97D4E9" stroke-width="0.259259" stroke-miterlimit="10"/>
<path d="M829.63 1244.44V1218.52" stroke="#97D4E9" stroke-width="0.259259" stroke-miterlimit="10"/>
<path d="M1270.37 1166.67V1218.52H1296.3V1244.44" stroke="#97D4E9" stroke-width="0.259259" stroke-miterlimit="10"/>
<path d="M1348.15 1088.89V1114.81H1270.37V1166.67H1348.15V1244.44" stroke="#97D4E9" stroke-width="0.259259" stroke-miterlimit="10"/>
<path d="M1400 1140.74H1296.3V1088.89" stroke="#97D4E9" stroke-width="0.259259" stroke-miterlimit="10"/>
<path d="M1400 1192.59H1374.07V1218.52H1348.15C1333.83 1218.52 1322.22 1206.91 1322.22 1192.59V1114.81" stroke="#97D4E9" stroke-width="0.259259" stroke-miterlimit="10"/>
<path d="M1244.44 1192.59H1322.22" stroke="#97D4E9" stroke-width="0.259259" stroke-miterlimit="10"/>
<path d="M1244.44 1140.74H1270.37" stroke="#97D4E9" stroke-width="0.259259" stroke-miterlimit="10"/>
<path d="M518.519 1244.44L466.667 1192.59L570.37 1088.89V1192.59" stroke="#97D4E9" stroke-width="0.259259" stroke-miterlimit="10"/>
<path d="M518.519 1088.89L466.667 1140.74L570.37 1244.44L596.296 1218.52V1192.59H544.445V1166.67H570.37C570.37 1152.35 581.978 1140.74 596.296 1140.74H622.222" stroke="#97D4E9" stroke-width="0.259259" stroke-miterlimit="10"/>
<path d="M622.222 1192.59H596.296" stroke="#97D4E9" stroke-width="0.259259" stroke-miterlimit="10"/>
<path d="M933.333 1140.74L985.185 1088.89L1088.89 1192.59H985.185" stroke="#97D4E9" stroke-width="0.259259" stroke-miterlimit="10"/>
<path d="M1088.89 1140.74L1037.04 1088.89L933.333 1192.59L959.259 1218.52H985.185V1166.67H1011.11V1192.59C1025.43 1192.59 1037.04 1204.2 1037.04 1218.52V1244.44" stroke="#97D4E9" stroke-width="0.259259" stroke-miterlimit="10"/>
<path d="M985.185 1244.44V1218.52" stroke="#97D4E9" stroke-width="0.259259" stroke-miterlimit="10"/>
<path d="M-0.00012207 1140.74L51.8518 1088.89L155.556 1192.59H51.8518" stroke="#97D4E9" stroke-width="0.259259" stroke-miterlimit="10"/>
<path d="M155.556 1140.74L103.704 1088.89L-0.00012207 1192.59L25.9258 1218.52H51.8518V1166.67H77.7777V1192.59C92.0963 1192.59 103.704 1204.2 103.704 1218.52V1244.44" stroke="#97D4E9" stroke-width="0.259259" stroke-miterlimit="10"/>
<path d="M51.852 1244.44V1218.52" stroke="#97D4E9" stroke-width="0.259259" stroke-miterlimit="10"/>
<path d="M466.667 1348.15L414.815 1400V1244.44" stroke="#97D4E9" stroke-width="0.259259" stroke-miterlimit="10"/>
<path d="M466.667 1296.3H388.889V1322.22H362.963V1348.15H311.111" stroke="#97D4E9" stroke-width="0.259259" stroke-miterlimit="10"/>
<path d="M362.963 1400C362.963 1385.68 374.57 1374.07 388.889 1374.07H440.741V1270.37H362.963V1244.44L311.111 1296.3" stroke="#97D4E9" stroke-width="0.259259" stroke-miterlimit="10"/>
<path d="M829.63 1400L777.778 1348.15H933.333" stroke="#97D4E9" stroke-width="0.259259" stroke-miterlimit="10"/>
<path d="M881.481 1400V1322.22H855.556V1296.3H829.63V1244.44" stroke="#97D4E9" stroke-width="0.259259" stroke-miterlimit="10"/>
<path d="M777.778 1296.3C792.096 1296.3 803.704 1307.9 803.704 1322.22V1374.07H907.407V1296.3H933.333L881.482 1244.44" stroke="#97D4E9" stroke-width="0.259259" stroke-miterlimit="10"/>
<path d="M1244.44 1296.3L1296.3 1244.44V1400" stroke="#97D4E9" stroke-width="0.259259" stroke-miterlimit="10"/>
<path d="M1244.44 1348.15H1322.22V1322.22H1348.15V1296.3H1400" stroke="#97D4E9" stroke-width="0.259259" stroke-miterlimit="10"/>
<path d="M1348.15 1244.44C1348.15 1258.76 1336.54 1270.37 1322.22 1270.37H1270.37V1374.07H1348.15V1400L1400 1348.15" stroke="#97D4E9" stroke-width="0.259259" stroke-miterlimit="10"/>
<path d="M518.519 1400V1348.15H466.667" stroke="#97D4E9" stroke-width="0.259259" stroke-miterlimit="10"/>
<path d="M622.222 1348.15H544.445V1374.07H492.593V1270.37H596.296V1296.3H622.222" stroke="#97D4E9" stroke-width="0.259259" stroke-miterlimit="10"/>
<path d="M570.37 1400V1374.07H596.296V1322.22H544.444C530.126 1322.22 518.519 1310.61 518.519 1296.3V1244.44" stroke="#97D4E9" stroke-width="0.259259" stroke-miterlimit="10"/>
<path d="M466.667 1296.3H570.37V1244.44" stroke="#97D4E9" stroke-width="0.259259" stroke-miterlimit="10"/>
<path d="M933.333 1296.3H985.185V1244.44" stroke="#97D4E9" stroke-width="0.259259" stroke-miterlimit="10"/>
<path d="M985.185 1400V1322.22H959.259V1270.37H1062.96V1374.07H1037.04V1400" stroke="#97D4E9" stroke-width="0.259259" stroke-miterlimit="10"/>
<path d="M933.333 1348.15H959.259V1374.07H1011.11V1322.22C1011.11 1307.9 1022.72 1296.3 1037.04 1296.3H1088.89" stroke="#97D4E9" stroke-width="0.259259" stroke-miterlimit="10"/>
<path d="M1037.04 1244.44V1348.15H1088.89" stroke="#97D4E9" stroke-width="0.259259" stroke-miterlimit="10"/>
<path d="M-0.00012207 1296.3H51.8518V1244.44" stroke="#97D4E9" stroke-width="0.259259" stroke-miterlimit="10"/>
<path d="M51.8516 1400V1322.22H25.9257V1270.37H129.629V1374.07H103.704V1400" stroke="#97D4E9" stroke-width="0.259259" stroke-miterlimit="10"/>
<path d="M-0.00012207 1348.15H25.9258V1374.07H77.7777V1322.22C77.7777 1307.9 89.3852 1296.3 103.704 1296.3H155.556" stroke="#97D4E9" stroke-width="0.259259" stroke-miterlimit="10"/>
<path d="M103.704 1244.44V1348.15H155.555" stroke="#97D4E9" stroke-width="0.259259" stroke-miterlimit="10"/>
<path d="M777.778 1348.15L725.926 1400V1244.44L622.222 1348.15" stroke="#97D4E9" stroke-width="0.259259" stroke-miterlimit="10"/>
<path d="M622.222 1296.3H648.148C662.467 1296.3 674.074 1284.69 674.074 1270.37V1244.44" stroke="#97D4E9" stroke-width="0.259259" stroke-miterlimit="10"/>
<path d="M777.778 1296.3H725.926L674.074 1348.15H648.148V1374.07H674.074V1400" stroke="#97D4E9" stroke-width="0.259259" stroke-miterlimit="10"/>
<path d="M1140.74 1400L1088.89 1348.15H1244.44L1140.74 1244.44" stroke="#97D4E9" stroke-width="0.259259" stroke-miterlimit="10"/>
<path d="M1192.59 1244.44V1270.37C1192.59 1284.69 1204.2 1296.3 1218.52 1296.3H1244.44" stroke="#97D4E9" stroke-width="0.259259" stroke-miterlimit="10"/>
<path d="M1192.59 1400V1348.15L1140.74 1296.3V1270.37H1114.81V1296.3H1088.89" stroke="#97D4E9" stroke-width="0.259259" stroke-miterlimit="10"/>
<path d="M207.408 1400L155.556 1348.15H311.111L207.408 1244.44" stroke="#97D4E9" stroke-width="0.259259" stroke-miterlimit="10"/>
<path d="M259.259 1244.44V1270.37C259.259 1284.69 270.867 1296.3 285.185 1296.3H311.111" stroke="#97D4E9" stroke-width="0.259259" stroke-miterlimit="10"/>
<path d="M259.259 1400V1348.15L207.408 1296.3V1270.37H181.482V1296.3H155.556" stroke="#97D4E9" stroke-width="0.259259" stroke-miterlimit="10"/>
<path d="M622.222 725.925H648.148M648.148 725.925V674.073H700V751.851H674.074C659.755 751.851 648.148 740.244 648.148 725.925ZM648.148 725.925V648.147H751.852V674.073H777.778" stroke="#97D4E9" stroke-width="0.259259" stroke-miterlimit="10"/>
<path d="M725.926 622.221V725.925H674.074V777.777" stroke="#97D4E9" stroke-width="0.259259" stroke-miterlimit="10"/>
<path d="M777.778 725.926H751.852V751.852H725.926V777.778" stroke="#97D4E9" stroke-width="0.259259" stroke-miterlimit="10"/>
<path d="M674.074 674.074V622.222" stroke="#97D4E9" stroke-width="0.259259" stroke-miterlimit="10"/>
<path d="M622.222 674.074H648.148" stroke="#97D4E9" stroke-width="0.259259" stroke-miterlimit="10"/>
<path d="M207.407 622.221V648.147M207.407 648.147H259.259V699.999H181.481V674.073C181.481 659.755 193.089 648.147 207.407 648.147ZM207.407 648.147H285.185V751.851H259.259V777.777" stroke="#97D4E9" stroke-width="0.259259" stroke-miterlimit="10"/>
<path d="M311.111 725.926H207.408V674.074H155.556" stroke="#97D4E9" stroke-width="0.259259" stroke-miterlimit="10"/>
<path d="M207.407 777.778V751.852H181.481V725.926H155.555" stroke="#97D4E9" stroke-width="0.259259" stroke-miterlimit="10"/>
<path d="M259.259 674.074H311.111" stroke="#97D4E9" stroke-width="0.259259" stroke-miterlimit="10"/>
<path d="M259.259 622.221V648.147" stroke="#97D4E9" stroke-width="0.259259" stroke-miterlimit="10"/>
<path d="M1140.74 622.221V648.147M1140.74 648.147H1192.59V699.999H1114.81V674.073C1114.81 659.755 1126.42 648.147 1140.74 648.147ZM1140.74 648.147H1218.52V751.851H1192.59V777.777" stroke="#97D4E9" stroke-width="0.259259" stroke-miterlimit="10"/>
<path d="M1244.44 725.926H1140.74V674.074H1088.89" stroke="#97D4E9" stroke-width="0.259259" stroke-miterlimit="10"/>
<path d="M1140.74 777.778V751.852H1114.81V725.926H1088.89" stroke="#97D4E9" stroke-width="0.259259" stroke-miterlimit="10"/>
<path d="M1192.59 674.074H1244.44" stroke="#97D4E9" stroke-width="0.259259" stroke-miterlimit="10"/>
<path d="M1192.59 622.221V648.147" stroke="#97D4E9" stroke-width="0.259259" stroke-miterlimit="10"/>
<path d="M1088.89 829.63H1011.11C996.793 829.63 985.185 841.237 985.185 855.556V933.334" stroke="#97D4E9" stroke-width="0.259259" stroke-miterlimit="10"/>
<path d="M1037.04 933.333V881.482H959.259V803.704H1037.04V777.778" stroke="#97D4E9" stroke-width="0.259259" stroke-miterlimit="10"/>
<path d="M985.185 777.777L933.333 829.629" stroke="#97D4E9" stroke-width="0.259259" stroke-miterlimit="10"/>
<path d="M1088.89 881.482L1062.96 855.556H1011.11V907.408" stroke="#97D4E9" stroke-width="0.259259" stroke-miterlimit="10"/>
<path d="M933.333 881.482H959.259L985.185 907.408H1062.96V803.704H1037.04" stroke="#97D4E9" stroke-width="0.259259" stroke-miterlimit="10"/>
<path d="M570.37 933.334V855.556C570.37 841.237 558.763 829.63 544.444 829.63H466.667" stroke="#97D4E9" stroke-width="0.259259" stroke-miterlimit="10"/>
<path d="M466.667 881.482H518.518V803.704H596.296V881.482H622.222" stroke="#97D4E9" stroke-width="0.259259" stroke-miterlimit="10"/>
<path d="M622.222 829.629L570.37 777.777" stroke="#97D4E9" stroke-width="0.259259" stroke-miterlimit="10"/>
<path d="M518.519 933.334L544.445 907.408V855.556H492.593" stroke="#97D4E9" stroke-width="0.259259" stroke-miterlimit="10"/>
<path d="M518.519 777.778V803.704L492.593 829.63V907.407H596.296V881.482" stroke="#97D4E9" stroke-width="0.259259" stroke-miterlimit="10"/>
<path d="M0 881.482H77.7778C92.0961 881.482 103.704 869.874 103.704 855.556V777.778" stroke="#97D4E9" stroke-width="0.259259" stroke-miterlimit="10"/>
<path d="M51.8521 777.778V829.63H129.63V907.407H51.8521V933.333" stroke="#97D4E9" stroke-width="0.259259" stroke-miterlimit="10"/>
<path d="M103.704 933.333L155.555 881.482" stroke="#97D4E9" stroke-width="0.259259" stroke-miterlimit="10"/>
<path d="M0 829.63L25.9259 855.556H77.7778V803.704" stroke="#97D4E9" stroke-width="0.259259" stroke-miterlimit="10"/>
<path d="M155.555 829.63H129.629L103.704 803.704H25.9258V907.408H51.8517" stroke="#97D4E9" stroke-width="0.259259" stroke-miterlimit="10"/>
<path d="M829.63 933.332V881.48H907.408V829.628H933.333" stroke="#97D4E9" stroke-width="0.259259" stroke-miterlimit="10"/>
<path d="M881.481 933.334V855.556H855.555V803.704" stroke="#97D4E9" stroke-width="0.259259" stroke-miterlimit="10"/>
<path d="M777.778 881.482H829.63V777.778" stroke="#97D4E9" stroke-width="0.259259" stroke-miterlimit="10"/>
<path d="M907.407 829.63C907.407 815.311 895.8 803.704 881.482 803.704H803.704V829.63M803.704 829.63H777.778M803.704 829.63V907.408H855.556V881.482" stroke="#97D4E9" stroke-width="0.259259" stroke-miterlimit="10"/>
<path d="M881.481 803.704V777.778" stroke="#97D4E9" stroke-width="0.259259" stroke-miterlimit="10"/>
<path d="M907.407 881.48H933.333" stroke="#97D4E9" stroke-width="0.259259" stroke-miterlimit="10"/>
<path d="M311.111 829.63H362.963V907.408H414.815V933.334" stroke="#97D4E9" stroke-width="0.259259" stroke-miterlimit="10"/>
<path d="M311.111 881.482H388.889V855.556H440.741" stroke="#97D4E9" stroke-width="0.259259" stroke-miterlimit="10"/>
<path d="M362.963 777.778V829.63H466.667" stroke="#97D4E9" stroke-width="0.259259" stroke-miterlimit="10"/>
<path d="M414.815 907.407C429.134 907.407 440.741 895.8 440.741 881.482V803.704H414.815M414.815 803.704V777.778M414.815 803.704H337.037V855.556H362.963" stroke="#97D4E9" stroke-width="0.259259" stroke-miterlimit="10"/>
<path d="M440.741 881.48H466.667" stroke="#97D4E9" stroke-width="0.259259" stroke-miterlimit="10"/>
<path d="M362.963 907.406V933.332" stroke="#97D4E9" stroke-width="0.259259" stroke-miterlimit="10"/>
<path d="M1244.44 829.63H1296.3V907.408H1348.15V933.334" stroke="#97D4E9" stroke-width="0.259259" stroke-miterlimit="10"/>
<path d="M1244.44 881.482H1322.22V855.556H1374.07" stroke="#97D4E9" stroke-width="0.259259" stroke-miterlimit="10"/>
<path d="M1296.3 777.778V829.63H1400" stroke="#97D4E9" stroke-width="0.259259" stroke-miterlimit="10"/>
<path d="M1348.15 907.407C1362.47 907.407 1374.07 895.8 1374.07 881.482V803.704H1348.15M1348.15 803.704V777.778M1348.15 803.704H1270.37V855.556H1296.3" stroke="#97D4E9" stroke-width="0.259259" stroke-miterlimit="10"/>
<path d="M1374.07 881.48H1400" stroke="#97D4E9" stroke-width="0.259259" stroke-miterlimit="10"/>
<path d="M1296.3 907.406V933.332" stroke="#97D4E9" stroke-width="0.259259" stroke-miterlimit="10"/>
<path d="M725.926 777.778L777.778 829.63L674.074 933.333L622.222 881.482" stroke="#97D4E9" stroke-width="0.259259" stroke-miterlimit="10"/>
<path d="M725.926 933.334L622.222 829.63H663.335C670.211 829.63 676.806 832.362 681.667 837.224L725.926 881.482" stroke="#97D4E9" stroke-width="0.259259" stroke-miterlimit="10"/>
<path d="M674.074 777.777L777.778 881.481" stroke="#97D4E9" stroke-width="0.259259" stroke-miterlimit="10"/>
<path d="M311.111 881.482L259.259 933.333L155.556 829.63L207.408 777.778" stroke="#97D4E9" stroke-width="0.259259" stroke-miterlimit="10"/>
<path d="M155.556 881.481L259.259 777.777V818.89C259.259 825.766 256.528 832.36 251.666 837.222L207.407 881.481" stroke="#97D4E9" stroke-width="0.259259" stroke-miterlimit="10"/>
<path d="M311.111 829.628L207.407 933.332" stroke="#97D4E9" stroke-width="0.259259" stroke-miterlimit="10"/>
<path d="M1244.44 881.482L1192.59 933.333L1088.89 829.63L1140.74 777.778" stroke="#97D4E9" stroke-width="0.259259" stroke-miterlimit="10"/>
<path d="M1088.89 881.48L1192.59 777.777V818.89C1192.59 825.765 1189.86 832.36 1185 837.222L1140.74 881.48" stroke="#97D4E9" stroke-width="0.259259" stroke-miterlimit="10"/>
<path d="M1244.44 829.628L1140.74 933.332" stroke="#97D4E9" stroke-width="0.259259" stroke-miterlimit="10"/>
<path d="M959.259 700V751.852H985.185V777.778" stroke="#97D4E9" stroke-width="0.259259" stroke-miterlimit="10"/>
<path d="M1037.04 622.221V648.147H959.259V699.999H1037.04V777.777" stroke="#97D4E9" stroke-width="0.259259" stroke-miterlimit="10"/>
<path d="M1088.89 674.073H985.185V622.221" stroke="#97D4E9" stroke-width="0.259259" stroke-miterlimit="10"/>
<path d="M1088.89 725.925H1062.96V751.851H1037.04C1022.72 751.851 1011.11 740.244 1011.11 725.925V648.147" stroke="#97D4E9" stroke-width="0.259259" stroke-miterlimit="10"/>
<path d="M933.333 725.926H1011.11" stroke="#97D4E9" stroke-width="0.259259" stroke-miterlimit="10"/>
<path d="M933.333 674.074H959.259" stroke="#97D4E9" stroke-width="0.259259" stroke-miterlimit="10"/>
<path d="M544.444 648.147H492.592V674.073H466.667" stroke="#97D4E9" stroke-width="0.259259" stroke-miterlimit="10"/>
<path d="M622.222 725.925H596.296V648.147H544.444V725.925H466.667" stroke="#97D4E9" stroke-width="0.259259" stroke-miterlimit="10"/>
<path d="M570.37 777.777V674.074H622.222" stroke="#97D4E9" stroke-width="0.259259" stroke-miterlimit="10"/>
<path d="M518.518 777.778V751.852H492.593V725.926C492.593 711.607 504.2 700 518.518 700H596.296" stroke="#97D4E9" stroke-width="0.259259" stroke-miterlimit="10"/>
<path d="M518.519 622.221V699.999" stroke="#97D4E9" stroke-width="0.259259" stroke-miterlimit="10"/>
<path d="M570.37 622.221V648.147" stroke="#97D4E9" stroke-width="0.259259" stroke-miterlimit="10"/>
<path d="M129.63 699.999V648.147H103.704V622.221" stroke="#97D4E9" stroke-width="0.259259" stroke-miterlimit="10"/>
<path d="M51.8521 777.777V751.851H129.63V699.999H51.8521V622.221" stroke="#97D4E9" stroke-width="0.259259" stroke-miterlimit="10"/>
<path d="M0 725.926H103.704V777.778" stroke="#97D4E9" stroke-width="0.259259" stroke-miterlimit="10"/>
<path d="M0 674.073H25.9259V648.147H51.8519C66.1702 648.147 77.7778 659.755 77.7778 674.073V751.851" stroke="#97D4E9" stroke-width="0.259259" stroke-miterlimit="10"/>
<path d="M155.556 674.074H77.778" stroke="#97D4E9" stroke-width="0.259259" stroke-miterlimit="10"/>
<path d="M155.556 725.926H129.63" stroke="#97D4E9" stroke-width="0.259259" stroke-miterlimit="10"/>
<path d="M881.481 622.221L933.333 674.073L829.63 777.777V674.073" stroke="#97D4E9" stroke-width="0.259259" stroke-miterlimit="10"/>
<path d="M881.482 777.777L933.333 725.925L829.63 622.221L803.704 648.147V674.073H855.556V699.999H829.63C829.63 714.318 818.022 725.925 803.704 725.925H777.778" stroke="#97D4E9" stroke-width="0.259259" stroke-miterlimit="10"/>
<path d="M777.778 674.074H803.704" stroke="#97D4E9" stroke-width="0.259259" stroke-miterlimit="10"/>
<path d="M466.667 725.926L414.815 777.777L311.111 674.074H414.815" stroke="#97D4E9" stroke-width="0.259259" stroke-miterlimit="10"/>
<path d="M311.111 725.925L362.963 777.777L466.667 674.073L440.741 648.147H414.815V699.999H388.889V674.073C374.57 674.073 362.963 662.466 362.963 648.147V622.221" stroke="#97D4E9" stroke-width="0.259259" stroke-miterlimit="10"/>
<path d="M414.815 622.221V648.147" stroke="#97D4E9" stroke-width="0.259259" stroke-miterlimit="10"/>
<path d="M1400 725.926L1348.15 777.777L1244.44 674.074H1348.15" stroke="#97D4E9" stroke-width="0.259259" stroke-miterlimit="10"/>
<path d="M1244.44 725.925L1296.3 777.777L1400 674.073L1374.07 648.147H1348.15V699.999H1322.22V674.073C1307.9 674.073 1296.3 662.466 1296.3 648.147V622.221" stroke="#97D4E9" stroke-width="0.259259" stroke-miterlimit="10"/>
<path d="M1348.15 622.221V648.147" stroke="#97D4E9" stroke-width="0.259259" stroke-miterlimit="10"/>
<path d="M933.333 518.519L985.185 466.667V622.223" stroke="#97D4E9" stroke-width="0.259259" stroke-miterlimit="10"/>
<path d="M933.333 570.369H1011.11V544.443H1037.04V518.517H1088.89" stroke="#97D4E9" stroke-width="0.259259" stroke-miterlimit="10"/>
<path d="M1037.04 466.667C1037.04 480.986 1025.43 492.593 1011.11 492.593H959.259V596.297H1037.04V622.223L1088.89 570.371" stroke="#97D4E9" stroke-width="0.259259" stroke-miterlimit="10"/>
<path d="M570.37 466.667L622.222 518.519H466.667" stroke="#97D4E9" stroke-width="0.259259" stroke-miterlimit="10"/>
<path d="M518.519 466.667V544.445H544.444V570.371H570.37V622.223" stroke="#97D4E9" stroke-width="0.259259" stroke-miterlimit="10"/>
<path d="M622.222 570.371C607.903 570.371 596.296 558.764 596.296 544.445V492.593H492.592V570.371H466.667L518.518 622.223" stroke="#97D4E9" stroke-width="0.259259" stroke-miterlimit="10"/>
<path d="M155.555 570.371L103.704 622.223V466.667" stroke="#97D4E9" stroke-width="0.259259" stroke-miterlimit="10"/>
<path d="M155.556 518.517H77.7778V544.443H51.8519V570.369H0" stroke="#97D4E9" stroke-width="0.259259" stroke-miterlimit="10"/>
<path d="M51.8519 622.223C51.8519 607.904 63.4591 596.297 77.7778 596.297H129.63V492.593H51.8519V466.667L0 518.519" stroke="#97D4E9" stroke-width="0.259259" stroke-miterlimit="10"/>
<path d="M881.481 466.667V518.519H933.333" stroke="#97D4E9" stroke-width="0.259259" stroke-miterlimit="10"/>
<path d="M777.778 518.519H855.556V492.593H907.407V596.297H803.704V570.371H777.778" stroke="#97D4E9" stroke-width="0.259259" stroke-miterlimit="10"/>
<path d="M829.63 466.667V492.593H803.704V544.445H855.555C869.874 544.445 881.481 556.052 881.481 570.371V622.223" stroke="#97D4E9" stroke-width="0.259259" stroke-miterlimit="10"/>
<path d="M933.333 570.369H829.63V622.221" stroke="#97D4E9" stroke-width="0.259259" stroke-miterlimit="10"/>
<path d="M466.667 570.369H414.815V622.221" stroke="#97D4E9" stroke-width="0.259259" stroke-miterlimit="10"/>
<path d="M414.815 466.667V544.445H440.741V596.297H337.037V492.593H362.963V466.667" stroke="#97D4E9" stroke-width="0.259259" stroke-miterlimit="10"/>
<path d="M466.667 518.519H440.741V492.593H388.889V544.445C388.889 558.764 377.282 570.371 362.963 570.371H311.111" stroke="#97D4E9" stroke-width="0.259259" stroke-miterlimit="10"/>
<path d="M362.963 622.221V518.517H311.111" stroke="#97D4E9" stroke-width="0.259259" stroke-miterlimit="10"/>
<path d="M1400 570.369H1348.15V622.221" stroke="#97D4E9" stroke-width="0.259259" stroke-miterlimit="10"/>
<path d="M1348.15 466.667V544.445H1374.07V596.297H1270.37V492.593H1296.3V466.667" stroke="#97D4E9" stroke-width="0.259259" stroke-miterlimit="10"/>
<path d="M1400 518.519H1374.07V492.593H1322.22V544.445C1322.22 558.764 1310.62 570.371 1296.3 570.371H1244.44" stroke="#97D4E9" stroke-width="0.259259" stroke-miterlimit="10"/>
<path d="M1296.3 622.221V518.517H1244.44" stroke="#97D4E9" stroke-width="0.259259" stroke-miterlimit="10"/>
<path d="M622.222 518.519L674.074 466.667V622.223L777.778 518.519" stroke="#97D4E9" stroke-width="0.259259" stroke-miterlimit="10"/>
<path d="M777.778 570.369H751.852C737.533 570.369 725.926 581.976 725.926 596.295V622.221" stroke="#97D4E9" stroke-width="0.259259" stroke-miterlimit="10"/>
<path d="M622.222 570.371H674.074L725.926 518.519H751.852V492.593H725.926V466.667" stroke="#97D4E9" stroke-width="0.259259" stroke-miterlimit="10"/>
<path d="M259.259 466.667L311.111 518.519H155.556L259.259 622.223" stroke="#97D4E9" stroke-width="0.259259" stroke-miterlimit="10"/>
<path d="M207.408 622.221V596.295C207.408 581.976 195.8 570.369 181.482 570.369H155.556" stroke="#97D4E9" stroke-width="0.259259" stroke-miterlimit="10"/>
<path d="M207.407 466.667V518.519L259.259 570.371V596.297H285.185V570.371H311.111" stroke="#97D4E9" stroke-width="0.259259" stroke-miterlimit="10"/>
<path d="M1192.59 466.667L1244.44 518.519H1088.89L1192.59 622.223" stroke="#97D4E9" stroke-width="0.259259" stroke-miterlimit="10"/>
<path d="M1140.74 622.221V596.295C1140.74 581.976 1129.13 570.369 1114.81 570.369H1088.89" stroke="#97D4E9" stroke-width="0.259259" stroke-miterlimit="10"/>
<path d="M1140.74 466.667V518.519L1192.59 570.371V596.297H1218.52V570.371H1244.44" stroke="#97D4E9" stroke-width="0.259259" stroke-miterlimit="10"/>
</g>
</g>
</svg>
